<svg version="1.1" xmlns="http://www.w3.org/2000/svg" x="0px" y="0px" viewBox="0 0 38 64">
<path fill="#D61726" d="M14.6,13.1H5.8l-1.5,4C11.1,20.2,14.6,13.1,14.6,13.1 M18.3,25.5c2.8,1.6,10.2,6.1,10.2,6.1
  s2.2-2.7,4-4.8C30.1,24.3,23.9,20.8,18.3,25.5 M23.5,14.1c3.4-2.6,8.2-3,8.2-3L33.2,7l-3.5-1L30,4.6l-4.8-1.8c0-0.1,0-0.2,0-0.3
  c0-1.2-1-2.1-2.1-2.1c-1.2,0-2.1,1-2.1,2.1c0,1,0.7,1.8,1.5,2c-4.3,6.3-7.2,11.2-12.9,17.2C7.3,24.1,4,22.8,2.5,22
  c0,0-1.6,4.2-2.2,5.9c5.5,3.3,10.2,3,16.6-3.2c7.3-7.3,18.6-5.8,18.6-5.8l2.2-5.7C37.7,13.2,28.2,12.8,23.5,14.1"/>
<path fill="#FFFFFF" d="M14.6,45.1H5.8l-1.5,4C11.1,52.2,14.6,45.1,14.6,45.1 M18.3,57.5c2.8,1.6,10.2,6.1,10.2,6.1
  s2.2-2.7,4-4.8C30.1,56.3,23.9,52.8,18.3,57.5 M23.5,46.1c3.4-2.6,8.2-3,8.2-3l1.5-4.1l-3.5-1l0.3-1.4l-4.8-1.8c0-0.1,0-0.2,0-0.3
  c0-1.2-1-2.1-2.1-2.1c-1.2,0-2.1,1-2.1,2.1c0,1,0.7,1.8,1.5,2c-4.3,6.3-7.2,11.2-12.9,17.2C7.3,56.1,4,54.8,2.5,54
  c0,0-1.6,4.2-2.2,5.9c5.5,3.3,10.2,3,16.6-3.2c7.3-7.3,18.6-5.8,18.6-5.8l2.2-5.7C37.7,45.2,28.2,44.8,23.5,46.1"/>
</svg>
